<?xml version="1.0" encoding="UTF-8" standalone="no"?>
<!DOCTYPE svg PUBLIC "-//W3C//DTD SVG 1.1//EN" "http://www.w3.org/Graphics/SVG/1.1/DTD/svg11.dtd">
<svg version="1.1" xmlns="http://www.w3.org/2000/svg" xmlns:xlink="http://www.w3.org/1999/xlink" preserveAspectRatio="xMidYMid meet" viewBox="0 0 1000 1000" width="1000" height="1000"><defs><path d="M150.56 148.17L490.56 148.17L490.56 488.17L150.56 488.17L150.56 148.17Z" id="b6lcPrEwH"></path><path d="M172.94 172.94L464.6 172.94L464.6 464.6L172.94 464.6L172.94 172.94Z" id="aPpK6TH1"></path><path d="M187.46 105.75L201.75 105.75L201.75 147.41L187.46 147.41L187.46 105.75Z" id="c1xwaEdswn"></path><path d="M222.94 105.75L237.22 105.75L237.22 147.41L222.94 147.41L222.94 105.75Z" id="b3qT4lOlZJ"></path><path d="M258.41 105.75L272.7 105.75L272.7 147.41L258.41 147.41L258.41 105.75Z" id="acjtaDTP5"></path><path d="M295.08 105.75L309.37 105.75L309.37 147.41L295.08 147.41L295.08 105.75Z" id="b6XEDvYt2O"></path><path d="M331.75 105.75L346.03 105.75L346.03 147.41L331.75 147.41L331.75 105.75Z" id="aGdbFsEi8"></path><path d="M367.22 105.75L381.51 105.75L381.51 147.41L367.22 147.41L367.22 105.75Z" id="aS05pyno"></path><path d="M402.7 105.75L416.98 105.75L416.98 147.41L402.7 147.41L402.7 105.75Z" id="asB3ZxNu"></path><path d="M436.98 105.75L451.27 105.75L451.27 147.41L436.98 147.41L436.98 105.75Z" id="d423MkWx5w"></path><path d="M187.46 491.22L201.75 491.22L201.75 532.89L187.46 532.89L187.46 491.22Z" id="c1vnEnb6Jm"></path><path d="M222.94 491.22L237.22 491.22L237.22 532.89L222.94 532.89L222.94 491.22Z" id="a13co9Tn"></path><path d="M258.41 491.22L272.7 491.22L272.7 532.89L258.41 532.89L258.41 491.22Z" id="a5KBtlcru1"></path><path d="M295.08 491.22L309.37 491.22L309.37 532.89L295.08 532.89L295.08 491.22Z" id="cp22IJWg0"></path><path d="M331.75 491.22L346.03 491.22L346.03 532.89L331.75 532.89L331.75 491.22Z" id="dqdsXTlgb"></path><path d="M367.22 491.22L381.51 491.22L381.51 532.89L367.22 532.89L367.22 491.22Z" id="dPqne0EHu"></path><path d="M402.7 491.22L416.98 491.22L416.98 532.89L402.7 532.89L402.7 491.22Z" id="b2StcNOMSB"></path><path d="M436.98 491.22L451.27 491.22L451.27 532.89L436.98 532.89L436.98 491.22Z" id="c1HDyKJ1zI"></path><path d="M491.39 449.72L491.39 435.44L533.06 435.44L533.06 449.72L491.39 449.72Z" id="aLmGnepgi"></path><path d="M491.39 417.34L491.39 403.06L533.06 403.06L533.06 417.34L491.39 417.34Z" id="a5aSKcnpmQ"></path><path d="M491.39 381.39L491.39 367.1L533.06 367.1L533.06 381.39L491.39 381.39Z" id="b1ynVqQ"></path><path d="M491.39 344.25L491.39 329.96L533.06 329.96L533.06 344.25L491.39 344.25Z" id="d1ZtVw1GIr"></path><path d="M491.39 310.67L491.39 296.39L533.06 296.39L533.06 310.67L491.39 310.67Z" id="hwynbvbSn"></path><path d="M491.39 272.34L491.39 258.06L533.06 258.06L533.06 272.34L491.39 272.34Z" id="cFrzJDSM"></path><path d="M491.39 237.58L491.39 223.29L533.06 223.29L533.06 237.58L491.39 237.58Z" id="e25ebciUw0"></path><path d="M491.39 201.63L491.39 187.34L533.06 187.34L533.06 201.63L491.39 201.63Z" id="bfbDEbgk5"></path><path d="M109.15 452.58L109.15 438.29L150.82 438.29L150.82 452.58L109.15 452.58Z" id="b1WyI9JaaJ"></path><path d="M109.15 417.34L109.15 403.06L150.82 403.06L150.82 417.34L109.15 417.34Z" id="a2844ujLy"></path><path d="M109.15 381.39L109.15 367.1L150.82 367.1L150.82 381.39L109.15 381.39Z" id="bmyhbdemr"></path><path d="M109.15 344.25L109.15 329.96L150.82 329.96L150.82 344.25L109.15 344.25Z" id="f23JWpxjJ"></path><path d="M109.15 310.67L109.15 296.39L150.82 296.39L150.82 310.67L109.15 310.67Z" id="jseGYksc8"></path><path d="M109.15 272.34L109.15 258.06L150.82 258.06L150.82 272.34L109.15 272.34Z" id="bS27GpiS2"></path><path d="M109.15 237.58L109.15 223.29L150.82 223.29L150.82 237.58L109.15 237.58Z" id="b3RYFuZiHV"></path><path d="M109.15 201.63L109.15 187.34L150.82 187.34L150.82 201.63L109.15 201.63Z" id="d2bdYfS8JN"></path><path d="M201.75 201.63L436.75 201.63L436.75 436.63L201.75 436.63L201.75 201.63Z" id="i6ezcuaznA"></path></defs><g><g><g><use xlink:href="#b6lcPrEwH" opacity="1" fill="#166a5c" fill-opacity="1"></use><g><use xlink:href="#b6lcPrEwH" opacity="1" fill-opacity="0" stroke="#5da089" stroke-width="5" stroke-opacity="1"></use></g></g><g><use xlink:href="#aPpK6TH1" opacity="1" fill="#166a5c" fill-opacity="1"></use><g><use xlink:href="#aPpK6TH1" opacity="1" fill-opacity="0" stroke="#5da089" stroke-width="5" stroke-opacity="1"></use></g></g><g><use xlink:href="#c1xwaEdswn" opacity="1" fill="#166a5c" fill-opacity="1"></use><g><use xlink:href="#c1xwaEdswn" opacity="1" fill-opacity="0" stroke="#5da089" stroke-width="5" stroke-opacity="1"></use></g></g><g><use xlink:href="#b3qT4lOlZJ" opacity="1" fill="#166a5c" fill-opacity="1"></use><g><use xlink:href="#b3qT4lOlZJ" opacity="1" fill-opacity="0" stroke="#5da089" stroke-width="5" stroke-opacity="1"></use></g></g><g><use xlink:href="#acjtaDTP5" opacity="1" fill="#166a5c" fill-opacity="1"></use><g><use xlink:href="#acjtaDTP5" opacity="1" fill-opacity="0" stroke="#5da089" stroke-width="5" stroke-opacity="1"></use></g></g><g><use xlink:href="#b6XEDvYt2O" opacity="1" fill="#166a5c" fill-opacity="1"></use><g><use xlink:href="#b6XEDvYt2O" opacity="1" fill-opacity="0" stroke="#5da089" stroke-width="5" stroke-opacity="1"></use></g></g><g><use xlink:href="#aGdbFsEi8" opacity="1" fill="#166a5c" fill-opacity="1"></use><g><use xlink:href="#aGdbFsEi8" opacity="1" fill-opacity="0" stroke="#5da089" stroke-width="5" stroke-opacity="1"></use></g></g><g><use xlink:href="#aS05pyno" opacity="1" fill="#166a5c" fill-opacity="1"></use><g><use xlink:href="#aS05pyno" opacity="1" fill-opacity="0" stroke="#5da089" stroke-width="5" stroke-opacity="1"></use></g></g><g><use xlink:href="#asB3ZxNu" opacity="1" fill="#166a5c" fill-opacity="1"></use><g><use xlink:href="#asB3ZxNu" opacity="1" fill-opacity="0" stroke="#5da089" stroke-width="5" stroke-opacity="1"></use></g></g><g><use xlink:href="#d423MkWx5w" opacity="1" fill="#166a5c" fill-opacity="1"></use><g><use xlink:href="#d423MkWx5w" opacity="1" fill-opacity="0" stroke="#5da089" stroke-width="5" stroke-opacity="1"></use></g></g><g><use xlink:href="#c1vnEnb6Jm" opacity="1" fill="#166a5c" fill-opacity="1"></use><g><use xlink:href="#c1vnEnb6Jm" opacity="1" fill-opacity="0" stroke="#5da089" stroke-width="5" stroke-opacity="1"></use></g></g><g><use xlink:href="#a13co9Tn" opacity="1" fill="#166a5c" fill-opacity="1"></use><g><use xlink:href="#a13co9Tn" opacity="1" fill-opacity="0" stroke="#5da089" stroke-width="5" stroke-opacity="1"></use></g></g><g><use xlink:href="#a5KBtlcru1" opacity="1" fill="#166a5c" fill-opacity="1"></use><g><use xlink:href="#a5KBtlcru1" opacity="1" fill-opacity="0" stroke="#5da089" stroke-width="5" stroke-opacity="1"></use></g></g><g><use xlink:href="#cp22IJWg0" opacity="1" fill="#166a5c" fill-opacity="1"></use><g><use xlink:href="#cp22IJWg0" opacity="1" fill-opacity="0" stroke="#5da089" stroke-width="5" stroke-opacity="1"></use></g></g><g><use xlink:href="#dqdsXTlgb" opacity="1" fill="#166a5c" fill-opacity="1"></use><g><use xlink:href="#dqdsXTlgb" opacity="1" fill-opacity="0" stroke="#5da089" stroke-width="5" stroke-opacity="1"></use></g></g><g><use xlink:href="#dPqne0EHu" opacity="1" fill="#166a5c" fill-opacity="1"></use><g><use xlink:href="#dPqne0EHu" opacity="1" fill-opacity="0" stroke="#5da089" stroke-width="5" stroke-opacity="1"></use></g></g><g><use xlink:href="#b2StcNOMSB" opacity="1" fill="#166a5c" fill-opacity="1"></use><g><use xlink:href="#b2StcNOMSB" opacity="1" fill-opacity="0" stroke="#5da089" stroke-width="5" stroke-opacity="1"></use></g></g><g><use xlink:href="#c1HDyKJ1zI" opacity="1" fill="#166a5c" fill-opacity="1"></use><g><use xlink:href="#c1HDyKJ1zI" opacity="1" fill-opacity="0" stroke="#5da089" stroke-width="5" stroke-opacity="1"></use></g></g><g><use xlink:href="#aLmGnepgi" opacity="1" fill="#166a5c" fill-opacity="1"></use><g><use xlink:href="#aLmGnepgi" opacity="1" fill-opacity="0" stroke="#5da089" stroke-width="5" stroke-opacity="1"></use></g></g><g><use xlink:href="#a5aSKcnpmQ" opacity="1" fill="#166a5c" fill-opacity="1"></use><g><use xlink:href="#a5aSKcnpmQ" opacity="1" fill-opacity="0" stroke="#5da089" stroke-width="5" stroke-opacity="1"></use></g></g><g><use xlink:href="#b1ynVqQ" opacity="1" fill="#166a5c" fill-opacity="1"></use><g><use xlink:href="#b1ynVqQ" opacity="1" fill-opacity="0" stroke="#5da089" stroke-width="5" stroke-opacity="1"></use></g></g><g><use xlink:href="#d1ZtVw1GIr" opacity="1" fill="#166a5c" fill-opacity="1"></use><g><use xlink:href="#d1ZtVw1GIr" opacity="1" fill-opacity="0" stroke="#5da089" stroke-width="5" stroke-opacity="1"></use></g></g><g><use xlink:href="#hwynbvbSn" opacity="1" fill="#166a5c" fill-opacity="1"></use><g><use xlink:href="#hwynbvbSn" opacity="1" fill-opacity="0" stroke="#5da089" stroke-width="5" stroke-opacity="1"></use></g></g><g><use xlink:href="#cFrzJDSM" opacity="1" fill="#166a5c" fill-opacity="1"></use><g><use xlink:href="#cFrzJDSM" opacity="1" fill-opacity="0" stroke="#5da089" stroke-width="5" stroke-opacity="1"></use></g></g><g><use xlink:href="#e25ebciUw0" opacity="1" fill="#166a5c" fill-opacity="1"></use><g><use xlink:href="#e25ebciUw0" opacity="1" fill-opacity="0" stroke="#5da089" stroke-width="5" stroke-opacity="1"></use></g></g><g><use xlink:href="#bfbDEbgk5" opacity="1" fill="#166a5c" fill-opacity="1"></use><g><use xlink:href="#bfbDEbgk5" opacity="1" fill-opacity="0" stroke="#5da089" stroke-width="5" stroke-opacity="1"></use></g></g><g><use xlink:href="#b1WyI9JaaJ" opacity="1" fill="#166a5c" fill-opacity="1"></use><g><use xlink:href="#b1WyI9JaaJ" opacity="1" fill-opacity="0" stroke="#5da089" stroke-width="5" stroke-opacity="1"></use></g></g><g><use xlink:href="#a2844ujLy" opacity="1" fill="#166a5c" fill-opacity="1"></use><g><use xlink:href="#a2844ujLy" opacity="1" fill-opacity="0" stroke="#5da089" stroke-width="5" stroke-opacity="1"></use></g></g><g><use xlink:href="#bmyhbdemr" opacity="1" fill="#166a5c" fill-opacity="1"></use><g><use xlink:href="#bmyhbdemr" opacity="1" fill-opacity="0" stroke="#5da089" stroke-width="5" stroke-opacity="1"></use></g></g><g><use xlink:href="#f23JWpxjJ" opacity="1" fill="#166a5c" fill-opacity="1"></use><g><use xlink:href="#f23JWpxjJ" opacity="1" fill-opacity="0" stroke="#5da089" stroke-width="5" stroke-opacity="1"></use></g></g><g><use xlink:href="#jseGYksc8" opacity="1" fill="#166a5c" fill-opacity="1"></use><g><use xlink:href="#jseGYksc8" opacity="1" fill-opacity="0" stroke="#5da089" stroke-width="5" stroke-opacity="1"></use></g></g><g><use xlink:href="#bS27GpiS2" opacity="1" fill="#166a5c" fill-opacity="1"></use><g><use xlink:href="#bS27GpiS2" opacity="1" fill-opacity="0" stroke="#5da089" stroke-width="5" stroke-opacity="1"></use></g></g><g><use xlink:href="#b3RYFuZiHV" opacity="1" fill="#166a5c" fill-opacity="1"></use><g><use xlink:href="#b3RYFuZiHV" opacity="1" fill-opacity="0" stroke="#5da089" stroke-width="5" stroke-opacity="1"></use></g></g><g><use xlink:href="#d2bdYfS8JN" opacity="1" fill="#166a5c" fill-opacity="1"></use><g><use xlink:href="#d2bdYfS8JN" opacity="1" fill-opacity="0" stroke="#5da089" stroke-width="5" stroke-opacity="1"></use></g></g><g><use xlink:href="#i6ezcuaznA" opacity="1" fill="#ffffff" fill-opacity="1"></use><g><use xlink:href="#i6ezcuaznA" opacity="1" fill-opacity="0" stroke="#5da089" stroke-width="5" stroke-opacity="1"></use></g></g></g></g></svg>