<?xml version="1.0" encoding="UTF-8" standalone="no"?>
<!DOCTYPE svg PUBLIC "-//W3C//DTD SVG 1.1//EN" "http://www.w3.org/Graphics/SVG/1.1/DTD/svg11.dtd">
<svg version="1.1" xmlns="http://www.w3.org/2000/svg" xmlns:xlink="http://www.w3.org/1999/xlink" preserveAspectRatio="xMidYMid meet" viewBox="0 0 1000 1000" width="1000" height="1000"><defs><path d="M187.46 105.75L201.75 105.75L201.75 147.41L187.46 147.41L187.46 105.75Z" id="a7MssN5rS"></path><path d="M222.94 105.75L237.22 105.75L237.22 147.41L222.94 147.41L222.94 105.75Z" id="beDYJNsJu"></path><path d="M258.41 105.75L272.7 105.75L272.7 147.41L258.41 147.41L258.41 105.75Z" id="apsPPqCoX"></path><path d="M295.08 105.75L309.37 105.75L309.37 147.41L295.08 147.41L295.08 105.75Z" id="a1WXIq5KLR"></path><path d="M331.75 105.75L346.03 105.75L346.03 147.41L331.75 147.41L331.75 105.75Z" id="hbvRHI0Lq"></path><path d="M367.22 105.75L381.51 105.75L381.51 147.41L367.22 147.41L367.22 105.75Z" id="b5THHFMvD9"></path><path d="M402.7 105.75L416.98 105.75L416.98 147.41L402.7 147.41L402.7 105.75Z" id="a1d5GsFvDp"></path><path d="M436.98 105.75L451.27 105.75L451.27 147.41L436.98 147.41L436.98 105.75Z" id="b1kRoBNt19"></path><path d="M187.46 491.22L201.75 491.22L201.75 532.89L187.46 532.89L187.46 491.22Z" id="f1AfA1o2v"></path><path d="M222.94 491.22L237.22 491.22L237.22 532.89L222.94 532.89L222.94 491.22Z" id="agGnsJT5C"></path><path d="M258.41 491.22L272.7 491.22L272.7 532.89L258.41 532.89L258.41 491.22Z" id="b1O8i9pKoh"></path><path d="M295.08 491.22L309.37 491.22L309.37 532.89L295.08 532.89L295.08 491.22Z" id="g6H683MEsq"></path><path d="M331.75 491.22L346.03 491.22L346.03 532.89L331.75 532.89L331.75 491.22Z" id="g1SPuN8l5"></path><path d="M367.22 491.22L381.51 491.22L381.51 532.89L367.22 532.89L367.22 491.22Z" id="b1BCOnXCyQ"></path><path d="M402.7 491.22L416.98 491.22L416.98 532.89L402.7 532.89L402.7 491.22Z" id="cD1oTEx4c"></path><path d="M436.98 491.22L451.27 491.22L451.27 532.89L436.98 532.89L436.98 491.22Z" id="c3p4xzv86F"></path><path d="M491.39 449.72L491.39 435.44L533.06 435.44L533.06 449.72L491.39 449.72Z" id="a1U52m6JzZ"></path><path d="M491.39 417.34L491.39 403.06L533.06 403.06L533.06 417.34L491.39 417.34Z" id="b1oJIFemW0"></path><path d="M491.39 381.39L491.39 367.1L533.06 367.1L533.06 381.39L491.39 381.39Z" id="a2whAzK18f"></path><path d="M491.39 344.25L491.39 329.96L533.06 329.96L533.06 344.25L491.39 344.25Z" id="f2zWrIlP9l"></path><path d="M491.39 310.67L491.39 296.39L533.06 296.39L533.06 310.67L491.39 310.67Z" id="ga1WfiSVK"></path><path d="M491.39 272.34L491.39 258.06L533.06 258.06L533.06 272.34L491.39 272.34Z" id="e1EL2WQ5S"></path><path d="M491.39 237.58L491.39 223.29L533.06 223.29L533.06 237.58L491.39 237.58Z" id="a3pWuaQZBB"></path><path d="M491.39 201.63L491.39 187.34L533.06 187.34L533.06 201.63L491.39 201.63Z" id="aN2l9Ey3Y"></path><path d="M109.15 452.58L109.15 438.29L150.82 438.29L150.82 452.58L109.15 452.58Z" id="a2METdDb8u"></path><path d="M109.15 417.34L109.15 403.06L150.82 403.06L150.82 417.34L109.15 417.34Z" id="d34Ck1H53Y"></path><path d="M109.15 381.39L109.15 367.1L150.82 367.1L150.82 381.39L109.15 381.39Z" id="bcmovnV0c"></path><path d="M109.15 344.25L109.15 329.96L150.82 329.96L150.82 344.25L109.15 344.25Z" id="j88QQ8AEc"></path><path d="M109.15 310.67L109.15 296.39L150.82 296.39L150.82 310.67L109.15 310.67Z" id="d1eCkVBjbb"></path><path d="M109.15 272.34L109.15 258.06L150.82 258.06L150.82 272.34L109.15 272.34Z" id="e2arGhwQK"></path><path d="M109.15 237.58L109.15 223.29L150.82 223.29L150.82 237.58L109.15 237.58Z" id="a1tqmfTkq"></path><path d="M109.15 201.63L109.15 187.34L150.82 187.34L150.82 201.63L109.15 201.63Z" id="f1dg5T1RPN"></path><path d="M471.39 147.41C482.43 147.41 491.39 156.37 491.39 167.41C491.39 232.17 491.39 406.46 491.39 471.22C491.39 482.27 482.43 491.22 471.39 491.22C407.27 491.22 234.93 491.22 170.82 491.22C159.77 491.22 150.82 482.27 150.82 471.22C150.82 406.46 150.82 232.17 150.82 167.41C150.82 156.37 159.77 147.41 170.82 147.41C234.93 147.41 407.27 147.41 471.39 147.41Z" id="b12KKCzEYz"></path><path d="M435.69 187.41C444.05 187.41 450.82 194.18 450.82 202.54C450.82 251.51 450.82 383.31 450.82 432.29C450.82 440.64 444.05 447.41 435.69 447.41C386.72 447.41 254.92 447.41 205.94 447.41C197.59 447.41 190.82 440.64 190.82 432.29C190.82 383.31 190.82 251.51 190.82 202.54C190.82 194.18 197.59 187.41 205.94 187.41C254.92 187.41 386.72 187.41 435.69 187.41Z" id="aSvJCIrUz"></path></defs><g><g><g><use xlink:href="#a7MssN5rS" opacity="1" fill="#166a5c" fill-opacity="1"></use><g><use xlink:href="#a7MssN5rS" opacity="1" fill-opacity="0" stroke="#5da089" stroke-width="5" stroke-opacity="1"></use></g></g><g><use xlink:href="#beDYJNsJu" opacity="1" fill="#166a5c" fill-opacity="1"></use><g><use xlink:href="#beDYJNsJu" opacity="1" fill-opacity="0" stroke="#5da089" stroke-width="5" stroke-opacity="1"></use></g></g><g><use xlink:href="#apsPPqCoX" opacity="1" fill="#166a5c" fill-opacity="1"></use><g><use xlink:href="#apsPPqCoX" opacity="1" fill-opacity="0" stroke="#5da089" stroke-width="5" stroke-opacity="1"></use></g></g><g><use xlink:href="#a1WXIq5KLR" opacity="1" fill="#166a5c" fill-opacity="1"></use><g><use xlink:href="#a1WXIq5KLR" opacity="1" fill-opacity="0" stroke="#5da089" stroke-width="5" stroke-opacity="1"></use></g></g><g><use xlink:href="#hbvRHI0Lq" opacity="1" fill="#166a5c" fill-opacity="1"></use><g><use xlink:href="#hbvRHI0Lq" opacity="1" fill-opacity="0" stroke="#5da089" stroke-width="5" stroke-opacity="1"></use></g></g><g><use xlink:href="#b5THHFMvD9" opacity="1" fill="#166a5c" fill-opacity="1"></use><g><use xlink:href="#b5THHFMvD9" opacity="1" fill-opacity="0" stroke="#5da089" stroke-width="5" stroke-opacity="1"></use></g></g><g><use xlink:href="#a1d5GsFvDp" opacity="1" fill="#166a5c" fill-opacity="1"></use><g><use xlink:href="#a1d5GsFvDp" opacity="1" fill-opacity="0" stroke="#5da089" stroke-width="5" stroke-opacity="1"></use></g></g><g><use xlink:href="#b1kRoBNt19" opacity="1" fill="#166a5c" fill-opacity="1"></use><g><use xlink:href="#b1kRoBNt19" opacity="1" fill-opacity="0" stroke="#5da089" stroke-width="5" stroke-opacity="1"></use></g></g><g><use xlink:href="#f1AfA1o2v" opacity="1" fill="#166a5c" fill-opacity="1"></use><g><use xlink:href="#f1AfA1o2v" opacity="1" fill-opacity="0" stroke="#5da089" stroke-width="5" stroke-opacity="1"></use></g></g><g><use xlink:href="#agGnsJT5C" opacity="1" fill="#166a5c" fill-opacity="1"></use><g><use xlink:href="#agGnsJT5C" opacity="1" fill-opacity="0" stroke="#5da089" stroke-width="5" stroke-opacity="1"></use></g></g><g><use xlink:href="#b1O8i9pKoh" opacity="1" fill="#166a5c" fill-opacity="1"></use><g><use xlink:href="#b1O8i9pKoh" opacity="1" fill-opacity="0" stroke="#5da089" stroke-width="5" stroke-opacity="1"></use></g></g><g><use xlink:href="#g6H683MEsq" opacity="1" fill="#166a5c" fill-opacity="1"></use><g><use xlink:href="#g6H683MEsq" opacity="1" fill-opacity="0" stroke="#5da089" stroke-width="5" stroke-opacity="1"></use></g></g><g><use xlink:href="#g1SPuN8l5" opacity="1" fill="#166a5c" fill-opacity="1"></use><g><use xlink:href="#g1SPuN8l5" opacity="1" fill-opacity="0" stroke="#5da089" stroke-width="5" stroke-opacity="1"></use></g></g><g><use xlink:href="#b1BCOnXCyQ" opacity="1" fill="#166a5c" fill-opacity="1"></use><g><use xlink:href="#b1BCOnXCyQ" opacity="1" fill-opacity="0" stroke="#5da089" stroke-width="5" stroke-opacity="1"></use></g></g><g><use xlink:href="#cD1oTEx4c" opacity="1" fill="#166a5c" fill-opacity="1"></use><g><use xlink:href="#cD1oTEx4c" opacity="1" fill-opacity="0" stroke="#5da089" stroke-width="5" stroke-opacity="1"></use></g></g><g><use xlink:href="#c3p4xzv86F" opacity="1" fill="#166a5c" fill-opacity="1"></use><g><use xlink:href="#c3p4xzv86F" opacity="1" fill-opacity="0" stroke="#5da089" stroke-width="5" stroke-opacity="1"></use></g></g><g><use xlink:href="#a1U52m6JzZ" opacity="1" fill="#166a5c" fill-opacity="1"></use><g><use xlink:href="#a1U52m6JzZ" opacity="1" fill-opacity="0" stroke="#5da089" stroke-width="5" stroke-opacity="1"></use></g></g><g><use xlink:href="#b1oJIFemW0" opacity="1" fill="#166a5c" fill-opacity="1"></use><g><use xlink:href="#b1oJIFemW0" opacity="1" fill-opacity="0" stroke="#5da089" stroke-width="5" stroke-opacity="1"></use></g></g><g><use xlink:href="#a2whAzK18f" opacity="1" fill="#166a5c" fill-opacity="1"></use><g><use xlink:href="#a2whAzK18f" opacity="1" fill-opacity="0" stroke="#5da089" stroke-width="5" stroke-opacity="1"></use></g></g><g><use xlink:href="#f2zWrIlP9l" opacity="1" fill="#166a5c" fill-opacity="1"></use><g><use xlink:href="#f2zWrIlP9l" opacity="1" fill-opacity="0" stroke="#5da089" stroke-width="5" stroke-opacity="1"></use></g></g><g><use xlink:href="#ga1WfiSVK" opacity="1" fill="#166a5c" fill-opacity="1"></use><g><use xlink:href="#ga1WfiSVK" opacity="1" fill-opacity="0" stroke="#5da089" stroke-width="5" stroke-opacity="1"></use></g></g><g><use xlink:href="#e1EL2WQ5S" opacity="1" fill="#166a5c" fill-opacity="1"></use><g><use xlink:href="#e1EL2WQ5S" opacity="1" fill-opacity="0" stroke="#5da089" stroke-width="5" stroke-opacity="1"></use></g></g><g><use xlink:href="#a3pWuaQZBB" opacity="1" fill="#166a5c" fill-opacity="1"></use><g><use xlink:href="#a3pWuaQZBB" opacity="1" fill-opacity="0" stroke="#5da089" stroke-width="5" stroke-opacity="1"></use></g></g><g><use xlink:href="#aN2l9Ey3Y" opacity="1" fill="#166a5c" fill-opacity="1"></use><g><use xlink:href="#aN2l9Ey3Y" opacity="1" fill-opacity="0" stroke="#5da089" stroke-width="5" stroke-opacity="1"></use></g></g><g><use xlink:href="#a2METdDb8u" opacity="1" fill="#166a5c" fill-opacity="1"></use><g><use xlink:href="#a2METdDb8u" opacity="1" fill-opacity="0" stroke="#5da089" stroke-width="5" stroke-opacity="1"></use></g></g><g><use xlink:href="#d34Ck1H53Y" opacity="1" fill="#166a5c" fill-opacity="1"></use><g><use xlink:href="#d34Ck1H53Y" opacity="1" fill-opacity="0" stroke="#5da089" stroke-width="5" stroke-opacity="1"></use></g></g><g><use xlink:href="#bcmovnV0c" opacity="1" fill="#166a5c" fill-opacity="1"></use><g><use xlink:href="#bcmovnV0c" opacity="1" fill-opacity="0" stroke="#5da089" stroke-width="5" stroke-opacity="1"></use></g></g><g><use xlink:href="#j88QQ8AEc" opacity="1" fill="#166a5c" fill-opacity="1"></use><g><use xlink:href="#j88QQ8AEc" opacity="1" fill-opacity="0" stroke="#5da089" stroke-width="5" stroke-opacity="1"></use></g></g><g><use xlink:href="#d1eCkVBjbb" opacity="1" fill="#166a5c" fill-opacity="1"></use><g><use xlink:href="#d1eCkVBjbb" opacity="1" fill-opacity="0" stroke="#5da089" stroke-width="5" stroke-opacity="1"></use></g></g><g><use xlink:href="#e2arGhwQK" opacity="1" fill="#166a5c" fill-opacity="1"></use><g><use xlink:href="#e2arGhwQK" opacity="1" fill-opacity="0" stroke="#5da089" stroke-width="5" stroke-opacity="1"></use></g></g><g><use xlink:href="#a1tqmfTkq" opacity="1" fill="#166a5c" fill-opacity="1"></use><g><use xlink:href="#a1tqmfTkq" opacity="1" fill-opacity="0" stroke="#5da089" stroke-width="5" stroke-opacity="1"></use></g></g><g><use xlink:href="#f1dg5T1RPN" opacity="1" fill="#166a5c" fill-opacity="1"></use><g><use xlink:href="#f1dg5T1RPN" opacity="1" fill-opacity="0" stroke="#5da089" stroke-width="5" stroke-opacity="1"></use></g></g><g><use xlink:href="#b12KKCzEYz" opacity="1" fill="#166a5c" fill-opacity="1"></use><g><use xlink:href="#b12KKCzEYz" opacity="1" fill-opacity="0" stroke="#5da089" stroke-width="5" stroke-opacity="1"></use></g></g><g><use xlink:href="#aSvJCIrUz" opacity="1" fill="#ffffff" fill-opacity="1"></use><g><use xlink:href="#aSvJCIrUz" opacity="1" fill-opacity="0" stroke="#5da089" stroke-width="5" stroke-opacity="1"></use></g></g></g></g></svg>